<?xml version="1.0" standalone="no"?>
<!DOCTYPE svg PUBLIC "-//W3C//DTD SVG 20010904//EN"
 "http://www.w3.org/TR/2001/REC-SVG-20010904/DTD/svg10.dtd">
<svg version="1.0" xmlns="http://www.w3.org/2000/svg"
 width="1024.000000pt" height="1024.000000pt" viewBox="0 0 1024.000000 1024.000000"
 preserveAspectRatio="xMidYMid meet">

<g transform="translate(0.000000,1024.000000) scale(0.100000,-0.100000)"
fill="#000000" stroke="none">
<path d="M3638 7800 c-32 -28 -58 -214 -61 -432 -1 -82 -5 -148 -8 -148 -7 0
-3 -568 5 -670 3 -41 8 -127 11 -190 3 -63 8 -123 11 -132 3 -10 2 -18 -3 -18
-4 0 -8 -78 -9 -172 0 -95 -3 -418 -5 -718 -4 -495 -1 -603 19 -598 4 1 16 -3
27 -9 29 -15 135 -22 135 -9 0 6 5 4 10 -4 9 -13 11 -13 20 0 9 13 10 13 10 0
0 -9 3 -11 8 -4 4 6 45 12 92 13 47 2 126 6 175 10 l90 8 -100 2 c-63 0 -105
5 -113 13 -9 9 -12 9 -12 0 0 -8 -22 -12 -71 -12 -49 0 -68 3 -63 11 4 7 0 9
-12 5 -11 -3 -26 -1 -34 4 -11 7 -7 10 18 10 22 0 32 5 32 15 0 8 5 15 11 15
7 0 9 -10 7 -25 -4 -16 -1 -25 7 -25 8 0 11 8 8 20 -4 15 0 20 16 20 11 0 21
4 21 9 0 4 -11 7 -25 6 -14 -2 -25 1 -25 6 0 5 -7 9 -15 9 -8 0 -15 5 -15 10
0 9 14 14 33 11 4 0 7 6 7 14 0 19 -14 19 -30 0 -7 -8 -20 -15 -29 -15 -12 0
-10 -5 9 -20 l25 -20 -30 -1 c-29 -1 -30 -1 -5 -9 l25 -8 -27 -1 c-18 -1 -28
4 -28 13 0 9 -7 12 -19 9 -10 -3 -22 0 -25 6 -4 6 -12 11 -17 11 -6 0 -7 -5
-4 -10 3 -6 -2 -14 -12 -18 -26 -10 -27 -32 -1 -33 54 -2 79 -6 86 -14 4 -4
-20 -5 -53 -1 -41 4 -55 3 -45 -4 13 -8 13 -10 -2 -10 -26 0 -37 31 -35 101 1
35 -2 70 -7 77 -11 17 -5 22 38 32 26 6 39 4 47 -6 7 -8 9 -18 5 -21 -4 -4
-10 -2 -15 5 -4 6 -7 -4 -7 -23 0 -31 1 -33 16 -20 17 15 53 16 66 2 4 -4 14
-7 23 -6 10 0 8 4 -6 9 -13 5 -23 18 -23 29 0 10 -7 21 -15 25 -17 6 -21 -9
-5 -19 16 -10 12 -25 -5 -19 -8 4 -15 14 -15 23 0 9 -11 25 -25 35 -14 10 -25
27 -25 37 0 11 -4 19 -10 19 -5 0 -10 -9 -10 -20 0 -11 -4 -20 -10 -20 -5 0
-10 7 -10 15 0 8 -4 15 -10 15 -6 0 -10 42 -9 108 1 75 4 100 10 82 7 -21 8
-19 3 10 -17 115 -16 140 3 140 17 1 17 1 0 14 -16 12 -17 32 -15 207 2 149 6
193 16 191 6 -1 12 4 12 12 0 8 6 17 13 20 6 3 2 3 -9 1 -14 -4 -24 0 -28 10
-4 11 1 15 19 15 14 0 25 5 25 10 0 6 -7 10 -16 8 -10 -2 -19 3 -21 10 -3 6 0
12 6 12 6 0 11 7 11 15 0 8 8 15 18 15 12 0 17 8 17 31 0 28 -2 30 -27 25 -21
-4 -28 -2 -28 9 0 20 54 20 70 0 7 -8 25 -21 41 -29 25 -13 29 -13 29 0 0 9
-4 12 -10 9 -5 -3 -10 -1 -10 5 0 6 -4 9 -8 6 -5 -3 -18 4 -30 14 -12 11 -34
20 -49 20 -32 0 -30 -8 -32 130 -1 141 5 289 11 296 4 3 20 8 36 10 24 4 30 1
28 -13 0 -10 -5 -21 -11 -25 -6 -4 -2 -8 8 -8 14 0 17 5 12 21 -5 16 -3 20 6
17 8 -3 13 -12 13 -21 -2 -19 22 -12 30 9 3 9 -1 14 -12 14 -10 0 -24 6 -30
13 -13 12 -17 14 -52 16 -11 0 -20 6 -20 11 0 6 9 10 20 10 11 0 20 -4 20 -8
0 -5 7 -9 15 -9 8 0 15 4 15 9 0 4 -5 8 -11 8 -5 0 -7 4 -4 10 4 6 -1 7 -11 3
-11 -4 -15 -3 -11 4 4 6 1 14 -5 16 -12 5 16 11 35 8 10 -1 9 17 -2 23 -5 4
-12 0 -15 -6 -3 -7 -3 -2 0 11 5 18 3 22 -7 17 -8 -4 -5 0 6 9 20 16 20 16 0
14 -11 -1 -33 -1 -50 0 -29 2 -29 2 -11 16 17 13 18 15 3 15 -9 0 -17 5 -17
11 0 5 5 7 10 4 6 -3 10 0 10 9 0 8 -6 17 -12 20 -10 5 -10 7 0 12 6 3 12 10
12 15 0 6 -4 7 -10 4 -6 -4 -9 22 -8 72 1 69 2 73 8 33 6 -39 7 -41 10 -15 6
53 5 99 -1 138 -4 24 -2 37 5 37 6 0 4 5 -4 10 -13 9 -13 11 0 20 9 6 10 10 3
10 -9 0 -12 88 -12 378 1 207 4 382 7 387 4 6 7 21 8 35 1 14 2 28 3 33 2 12
66 8 79 -5 9 -9 12 -9 12 -1 0 7 17 13 38 15 23 2 10 5 -38 8 -56 4 -78 1 -92
-10z m16 -1269 c3 -4 -6 -6 -19 -3 -14 2 -25 6 -25 8 0 8 39 4 44 -5z m-9 -61
c-3 -4 1 -11 7 -13 8 -3 6 -6 -4 -6 -12 -1 -18 6 -18 20 0 11 5 17 10 14 6 -4
8 -10 5 -15z m15 -570 c0 -11 -4 -20 -10 -20 -5 0 -10 9 -10 20 0 11 5 20 10
20 6 0 10 -9 10 -20z m-33 -42 c-3 -8 -6 -5 -6 6 -1 11 2 17 5 13 3 -3 4 -12
1 -19z m53 -914 c0 -2 -12 -4 -27 -4 -21 0 -24 3 -14 9 13 8 41 5 41 -5z m41
-183 c-8 -5 -20 -7 -28 -4 -21 8 -15 13 15 13 20 0 23 -3 13 -9z"/>
<path d="M3860 7803 c19 -3 38 -9 41 -15 4 -6 8 -4 12 4 4 11 -6 14 -42 15
-36 0 -39 -1 -11 -4z"/>
<path d="M3973 7803 c9 -2 25 -2 35 0 9 3 1 5 -18 5 -19 0 -27 -2 -17 -5z"/>
<path d="M4108 7803 c10 -4 10 -8 0 -21 -12 -14 -11 -14 9 -2 24 15 21 30 -5
29 -11 0 -13 -2 -4 -6z"/>
<path d="M4236 7793 c-4 -9 -2 -21 4 -27 8 -8 9 -6 5 5 -9 25 11 32 31 12 17
-17 18 -17 11 1 -6 16 -4 17 20 11 16 -3 35 -13 44 -21 15 -14 17 -13 15 2 -1
14 8 18 39 20 33 2 36 1 15 -6 -15 -5 -18 -8 -9 -9 9 -1 29 6 45 14 26 13 20
14 -93 14 -103 0 -122 -2 -127 -16z"/>
<path d="M4528 7803 c6 -2 18 -2 25 0 6 3 1 5 -13 5 -14 0 -19 -2 -12 -5z"/>
<path d="M4773 7803 c9 -2 23 -2 30 0 6 3 -1 5 -18 5 -16 0 -22 -2 -12 -5z"/>
<path d="M5048 7803 c6 -2 18 -2 25 0 6 3 1 5 -13 5 -14 0 -19 -2 -12 -5z"/>
<path d="M5128 7803 c6 -2 18 -2 25 0 6 3 1 5 -13 5 -14 0 -19 -2 -12 -5z"/>
<path d="M5373 7803 c9 -2 23 -2 30 0 6 3 -1 5 -18 5 -16 0 -22 -2 -12 -5z"/>
<path d="M5448 7803 c7 -3 16 -2 19 1 4 3 -2 6 -13 5 -11 0 -14 -3 -6 -6z"/>
<path d="M5488 7803 c6 -2 18 -2 25 0 6 3 1 5 -13 5 -14 0 -19 -2 -12 -5z"/>
<path d="M5638 7803 c18 -2 45 -2 60 0 15 2 0 4 -33 4 -33 0 -45 -2 -27 -4z"/>
<path d="M3838 7783 c7 -3 16 -2 19 1 4 3 -2 6 -13 5 -11 0 -14 -3 -6 -6z"/>
<path d="M3963 7773 c7 -8 21 -11 30 -7 27 10 20 20 -13 20 -26 0 -28 -2 -17
-13z"/>
<path d="M3805 7760 c4 -6 10 -8 15 -5 4 3 11 -1 13 -7 3 -8 6 -6 6 5 1 11 -6
17 -20 17 -11 0 -17 -5 -14 -10z"/>
<path d="M3878 7763 c7 -3 16 -2 19 1 4 3 -2 6 -13 5 -11 0 -14 -3 -6 -6z"/>
<path d="M3725 7750 c-3 -5 -2 -10 4 -10 5 0 13 5 16 10 3 6 2 10 -4 10 -5 0
-13 -4 -16 -10z"/>
<path d="M3774 7728 c-3 -4 0 -16 6 -25 9 -15 10 -14 4 6 -4 15 -2 21 4 17 6
-3 13 -3 16 2 3 5 -2 9 -10 9 -8 0 -17 -4 -20 -9z"/>
<path d="M4090 7721 c0 -5 7 -12 16 -15 24 -9 27 -7 10 9 -17 17 -26 19 -26 6z"/>
<path d="M4231 7684 c0 -11 3 -14 6 -6 3 7 2 16 -1 19 -3 4 -6 -2 -5 -13z"/>
<path d="M4266 7662 c-3 -5 1 -9 9 -9 8 0 12 4 9 9 -3 4 -7 8 -9 8 -2 0 -6 -4
-9 -8z"/>
<path d="M4360 7566 c0 -2 8 -10 18 -17 15 -13 16 -12 3 4 -13 16 -21 21 -21
13z"/>
<path d="M4638 7503 c7 -3 16 -2 19 1 4 3 -2 6 -13 5 -11 0 -14 -3 -6 -6z"/>
<path d="M4478 7493 c7 -3 16 -2 19 1 4 3 -2 6 -13 5 -11 0 -14 -3 -6 -6z"/>
<path d="M5180 7456 c0 -2 7 -7 16 -10 8 -3 12 -2 9 4 -6 10 -25 14 -25 6z"/>
<path d="M4278 7443 c7 -3 16 -2 19 1 4 3 -2 6 -13 5 -11 0 -14 -3 -6 -6z"/>
<path d="M4525 7440 c-3 -5 -1 -10 4 -10 6 0 11 5 11 10 0 6 -2 10 -4 10 -3 0
-8 -4 -11 -10z"/>
<path d="M4908 7433 c7 -3 16 -2 19 1 4 3 -2 6 -13 5 -11 0 -14 -3 -6 -6z"/>
<path d="M5440 7406 c0 -2 7 -7 16 -10 8 -3 12 -2 9 4 -6 10 -25 14 -25 6z"/>
<path d="M4350 7395 c0 -5 5 -17 10 -25 5 -8 10 -10 10 -5 0 6 -5 17 -10 25
-5 8 -10 11 -10 5z"/>
<path d="M5522 7376 c7 -8 15 -12 17 -11 5 6 -10 25 -20 25 -5 0 -4 -6 3 -14z"/>
<path d="M4531 7357 c-8 -10 -7 -14 4 -14 8 0 12 4 9 8 -2 4 2 10 8 12 8 4 9
6 2 6 -6 1 -17 -5 -23 -12z"/>
<path d="M4410 7326 c0 -2 8 -10 18 -17 15 -13 16 -12 3 4 -13 16 -21 21 -21
13z"/>
<path d="M4526 7307 c3 -10 9 -15 12 -12 3 3 0 11 -7 18 -10 9 -11 8 -5 -6z"/>
<path d="M4958 7313 c7 -3 16 -2 19 1 4 3 -2 6 -13 5 -11 0 -14 -3 -6 -6z"/>
<path d="M4370 7301 c0 -5 -10 -13 -21 -16 -17 -6 -19 -9 -8 -16 11 -7 10 -9
-3 -9 -10 0 -18 -5 -18 -10 0 -7 7 -7 20 0 11 6 18 15 15 21 -4 5 1 9 9 9 9 0
16 7 16 15 0 8 -2 15 -5 15 -3 0 -5 -4 -5 -9z"/>
<path d="M4547 7281 c-10 -14 -10 -14 4 -4 9 7 18 10 21 7 3 -3 8 -1 12 4 9
16 -24 9 -37 -7z"/>
<path d="M4693 7284 c0 -6 9 -9 19 -6 10 2 18 7 18 11 0 4 -8 7 -18 7 -10 0
-19 -5 -19 -12z"/>
<path d="M4274 7279 c-3 -6 0 -18 9 -26 10 -10 17 -11 21 -4 4 6 0 11 -8 11
-10 0 -13 6 -10 15 7 17 -2 20 -12 4z"/>
<path d="M4829 7272 c-11 -14 -11 -15 0 -5 7 6 20 9 27 6 8 -3 14 -3 14 0 0
14 -30 14 -41 -1z"/>
<path d="M4671 7268 c-1 -14 -9 -17 -41 -14 -22 2 -40 -1 -40 -6 0 -6 11 -7
24 -4 18 4 29 1 39 -14 7 -11 17 -17 20 -13 4 3 7 2 7 -3 0 -5 -91 -10 -207
-12 -114 -2 -205 -1 -203 2 3 3 29 6 58 7 29 2 56 7 59 13 3 6 3 8 -2 4 -4 -4
-17 -3 -28 3 -15 8 -18 8 -12 -1 5 -9 -5 -11 -42 -7 -42 4 -49 2 -49 -13 0
-14 11 -20 41 -25 23 -3 49 -3 57 0 9 4 19 1 23 -4 3 -6 12 -8 18 -4 7 4 221
9 477 10 706 4 957 7 833 10 -69 2 -113 8 -113 14 0 6 5 7 10 4 6 -3 10 -2 10
3 0 5 -24 8 -52 6 -29 -1 -61 2 -70 7 -10 6 -18 7 -18 5 0 -3 12 -12 28 -20
37 -21 9 -20 -30 0 -27 14 -33 14 -42 3 -6 -8 -20 -15 -31 -17 -19 -2 -19 -2
-3 11 10 8 15 17 11 20 -3 4 -12 -2 -20 -12 -17 -25 -56 -24 -50 0 3 12 0 16
-9 12 -7 -2 -11 -10 -8 -17 7 -19 -124 -15 -136 4 -8 13 -10 12 -10 -2 0 -16
-15 -18 -164 -18 -104 0 -167 4 -171 10 -5 8 -11 8 -19 1 -9 -7 -17 -5 -29 9
-18 22 -9 27 12 8 9 -9 12 -9 7 -1 -3 6 -3 13 1 16 5 2 2 2 -4 1 -7 -2 -13 1
-13 7 0 6 -4 8 -9 4 -5 -3 -12 -1 -16 5 -8 13 -35 13 -35 0 0 -5 7 -7 15 -4 8
4 15 1 15 -5 0 -20 -32 -25 -45 -8 -7 10 -16 17 -20 17 -4 0 -2 -7 5 -15 11
-13 8 -15 -16 -15 -20 0 -25 3 -16 9 8 5 12 17 9 27 -4 16 -5 16 -6 2z m75
-61 c4 -4 -7 -7 -24 -7 -18 0 -32 5 -32 10 0 11 45 9 56 -3z m834 -3 c0 -2
-12 -4 -27 -4 -21 0 -24 3 -14 9 13 8 41 5 41 -5z"/>
<path d="M5345 7270 c-3 -6 1 -7 9 -4 18 7 21 14 7 14 -6 0 -13 -4 -16 -10z"/>
<path d="M4933 7242 c25 -26 64 -41 51 -20 -3 4 -12 8 -20 8 -9 0 -12 5 -8 12
4 6 3 8 -3 5 -6 -4 -13 0 -17 8 -3 8 -11 15 -18 15 -6 0 0 -13 15 -28z"/>
<path d="M5400 7266 c0 -2 7 -9 15 -16 13 -11 14 -10 9 4 -5 14 -24 23 -24 12z"/>
<path d="M4384 7248 c-4 -7 -3 -8 4 -4 10 6 16 -4 14 -25 -1 -3 5 -6 13 -6 11
0 10 5 -2 24 -18 26 -19 27 -29 11z"/>
<path d="M4460 7256 c0 -2 7 -7 16 -10 8 -3 12 -2 9 4 -6 10 -25 14 -25 6z"/>
<path d="M4504 7249 c-4 -7 1 -9 15 -4 16 5 20 3 15 -9 -4 -10 -1 -16 7 -16 7
0 9 3 6 7 -4 3 0 11 8 17 12 9 10 11 -15 13 -16 1 -32 -3 -36 -8z"/>
<path d="M4885 7250 c-3 -5 -1 -10 4 -10 6 0 11 5 11 10 0 6 -2 10 -4 10 -3 0
-8 -4 -11 -10z"/>
<path d="M5290 7238 c0 -12 3 -17 8 -12 4 5 11 12 15 15 5 3 2 9 -7 12 -12 5
-16 0 -16 -15z"/>
<path d="M5360 7250 c-9 -6 -10 -10 -3 -10 6 0 15 5 18 10 8 12 4 12 -15 0z"/>
<path d="M4836 7236 c3 -8 14 -16 25 -19 25 -7 24 -3 -6 17 -19 13 -23 13 -19
2z"/>
<path d="M4565 7229 c-4 -6 -5 -12 -2 -15 2 -3 7 2 10 11 7 17 1 20 -8 4z"/>
<path d="M5120 7216 c7 -7 13 -7 20 0 6 6 3 10 -10 10 -13 0 -16 -4 -10 -10z"/>
<path d="M5633 7219 c-13 -6 -10 -8 14 -8 17 -1 34 3 38 8 6 11 -24 11 -52 0z"/>
<path d="M5018 7213 c7 -3 16 -2 19 1 4 3 -2 6 -13 5 -11 0 -14 -3 -6 -6z"/>
<path d="M5933 7213 c4 -7 0 -13 -10 -16 -10 -3 113 -5 274 -6 160 0 294 2
296 7 3 4 -116 6 -265 4 -208 -2 -274 0 -286 10 -10 8 -13 9 -9 1z"/>
<path d="M4215 7150 c-3 -5 -1 -10 4 -10 6 0 11 5 11 10 0 6 -2 10 -4 10 -3 0
-8 -4 -11 -10z"/>
<path d="M4160 7136 c0 -2 7 -7 16 -10 8 -3 12 -2 9 4 -6 10 -25 14 -25 6z"/>
<path d="M4218 7078 c-3 -24 -1 -54 3 -68 5 -17 8 -4 8 43 1 76 -5 88 -11 25z"/>
<path d="M3642 7068 c-7 -7 -12 -16 -12 -22 0 -5 6 -2 13 9 9 11 19 15 27 10
9 -5 11 -4 6 3 -9 15 -19 15 -34 0z"/>
<path d="M3653 7013 c9 -2 23 -2 30 0 6 3 -1 5 -18 5 -16 0 -22 -2 -12 -5z"/>
<path d="M3830 7010 c0 -5 5 -10 11 -10 5 0 7 5 4 10 -3 6 -8 10 -11 10 -2 0
-4 -4 -4 -10z"/>
<path d="M3736 6972 c-2 -4 -2 -12 2 -17 10 -14 42 -18 42 -5 0 5 -3 9 -7 9
-20 -3 -34 2 -28 11 3 6 4 10 1 10 -3 0 -7 -4 -10 -8z"/>
<path d="M3700 6956 c0 -2 7 -7 16 -10 8 -3 12 -2 9 4 -6 10 -25 14 -25 6z"/>
<path d="M6795 6945 c-144 -32 -256 -95 -370 -210 -66 -66 -89 -97 -127 -177
-63 -130 -72 -169 -65 -286 11 -167 51 -273 157 -413 122 -163 292 -250 515
-265 106 -7 188 8 313 56 68 26 94 43 145 93 79 79 137 145 137 157 0 5 14 25
31 44 69 79 111 253 98 403 -15 160 -74 279 -200 405 -54 53 -90 78 -171 117
-174 85 -315 108 -463 76z m316 -284 c90 -38 150 -80 178 -125 24 -38 27 -51
9 -40 -7 4 -8 3 -4 -5 4 -6 11 -9 15 -6 14 8 50 -93 57 -159 12 -117 -40 -296
-103 -358 -113 -109 -302 -146 -472 -93 -67 22 -91 35 -142 82 -90 84 -112
134 -117 264 -5 120 12 205 55 279 31 52 111 133 154 155 104 54 249 57 370 6z"/>
<path d="M6892 6394 c-94 -48 -105 -166 -21 -237 69 -59 152 -58 204 4 47 56
24 170 -43 218 -41 29 -100 35 -140 15z"/>
<path d="M3645 6910 c-8 -13 3 -30 18 -30 7 0 6 4 -3 10 -13 9 -13 11 0 20 9
6 10 10 3 10 -6 0 -15 -4 -18 -10z"/>
<path d="M3686 6855 c-3 -10 -2 -14 5 -10 6 4 16 -1 24 -11 7 -11 15 -17 18
-14 2 3 -6 15 -18 28 -19 21 -23 21 -29 7z"/>
<path d="M3680 6819 c0 -5 5 -7 10 -4 6 3 10 8 10 11 0 2 -4 4 -10 4 -5 0 -10
-5 -10 -11z"/>
<path d="M3768 6813 c7 -3 16 -2 19 1 4 3 -2 6 -13 5 -11 0 -14 -3 -6 -6z"/>
<path d="M3700 6800 c-9 -6 -10 -10 -3 -10 6 0 15 5 18 10 8 12 4 12 -15 0z"/>
<path d="M3650 6791 c0 -6 4 -13 10 -16 6 -3 7 1 4 9 -7 18 -14 21 -14 7z"/>
<path d="M3775 6780 c-8 -12 12 -40 28 -40 6 0 3 6 -8 13 -10 8 -15 19 -11 25
4 7 5 12 2 12 -3 0 -8 -5 -11 -10z"/>
<path d="M3694 6753 c2 -10 -3 -23 -10 -30 -7 -7 -14 -18 -17 -25 -2 -7 -8 -9
-13 -5 -5 4 -4 11 2 15 6 4 14 18 18 32 6 19 5 22 -3 10 -9 -12 -13 -12 -19
-2 -6 8 -8 -1 -7 -25 1 -30 5 -38 19 -36 10 0 22 -10 28 -23 6 -13 15 -24 19
-24 4 0 2 11 -4 25 -7 14 -16 25 -20 25 -4 0 -2 10 5 23 16 29 20 57 9 57 -5
0 -8 -8 -7 -17z"/>
<path d="M2774 6701 c-17 -11 -36 -34 -43 -52 -7 -21 -11 -145 -11 -371 0
-364 2 -377 52 -412 44 -31 109 -9 140 47 15 27 20 722 6 750 -12 23 -67 57
-93 57 -11 0 -34 -9 -51 -19z"/>
<path d="M3747 6689 c7 -7 15 -10 18 -7 3 3 -2 9 -12 12 -14 6 -15 5 -6 -5z"/>
<path d="M3644 6621 c4 -45 12 -61 31 -61 9 0 12 6 8 16 -4 11 -8 12 -13 4 -5
-8 -9 -5 -12 8 -4 15 -1 18 18 16 13 -1 22 2 18 7 -3 5 -9 7 -14 4 -4 -3 -10
2 -13 10 -4 9 -1 12 9 8 10 -4 12 0 8 11 -3 9 -15 16 -25 16 -15 0 -18 -6 -15
-39z"/>
<path d="M3750 6650 c0 -6 7 -10 15 -10 8 0 15 2 15 4 0 2 -7 6 -15 10 -8 3
-15 1 -15 -4z"/>
<path d="M3719 6623 c-13 -16 -12 -17 4 -4 16 13 21 21 13 21 -2 0 -10 -8 -17
-17z"/>
<path d="M3815 6539 c-4 -6 -5 -12 -2 -15 2 -3 7 2 10 11 7 17 1 20 -8 4z"/>
<path d="M5142 6538 c-12 -5 -9 -7 13 -8 17 -1 37 -3 46 -5 9 -1 23 2 30 7 11
8 10 9 -3 4 -10 -3 -18 -2 -18 2 0 9 -45 9 -68 0z"/>
<path d="M5250 6540 c0 -5 5 -10 10 -10 6 0 10 5 10 10 0 6 -4 10 -10 10 -5 0
-10 -4 -10 -10z"/>
<path d="M5280 6540 c0 -5 9 -10 20 -10 11 0 20 5 20 10 0 6 -9 10 -20 10 -11
0 -20 -4 -20 -10z"/>
<path d="M5368 6543 c7 -3 16 -2 19 1 4 3 -2 6 -13 5 -11 0 -14 -3 -6 -6z"/>
<path d="M3726 6525 c-11 -8 -15 -15 -9 -15 6 0 16 7 23 15 16 19 11 19 -14 0z"/>
<path d="M4230 6536 c0 -2 8 -10 18 -17 15 -13 16 -12 3 4 -13 16 -21 21 -21
13z"/>
<path d="M4260 6536 c0 -2 9 -6 20 -9 11 -3 20 -1 20 4 0 5 -9 9 -20 9 -11 0
-20 -2 -20 -4z"/>
<path d="M4505 6530 c-3 -5 -1 -10 4 -10 6 0 11 5 11 10 0 6 -2 10 -4 10 -3 0
-8 -4 -11 -10z"/>
<path d="M4548 6533 c12 -2 30 -2 40 0 9 3 -1 5 -23 4 -22 0 -30 -2 -17 -4z"/>
<path d="M4763 6533 c9 -2 23 -2 30 0 6 3 -1 5 -18 5 -16 0 -22 -2 -12 -5z"/>
<path d="M4843 6533 c9 -2 23 -2 30 0 6 3 -1 5 -18 5 -16 0 -22 -2 -12 -5z"/>
<path d="M4958 6533 c7 -3 16 -2 19 1 4 3 -2 6 -13 5 -11 0 -14 -3 -6 -6z"/>
<path d="M5068 6533 c7 -3 16 -2 19 1 4 3 -2 6 -13 5 -11 0 -14 -3 -6 -6z"/>
<path d="M5233 6505 c0 -8 4 -12 9 -9 5 3 6 10 3 15 -9 13 -12 11 -12 -6z"/>
<path d="M3770 6461 c5 -11 15 -23 21 -27 6 -3 3 5 -6 20 -20 30 -30 35 -15 7z"/>
<path d="M4090 6451 c0 -6 4 -13 10 -16 6 -3 7 1 4 9 -7 18 -14 21 -14 7z"/>
<path d="M3150 6402 c-49 -24 -75 -74 -75 -143 0 -46 5 -63 29 -94 32 -41 87
-69 117 -60 29 10 88 63 105 96 23 46 18 117 -12 156 -47 61 -102 77 -164 45z"/>
<path d="M4130 6410 c0 -6 7 -10 15 -10 8 0 15 2 15 4 0 2 -7 6 -15 10 -8 3
-15 1 -15 -4z"/>
<path d="M2394 6400 c-27 -11 -72 -65 -80 -96 -20 -81 29 -180 98 -198 46 -11
105 17 131 62 27 46 33 131 13 170 -28 53 -108 84 -162 62z"/>
<path d="M4326 6387 c3 -10 9 -15 12 -12 3 3 0 11 -7 18 -10 9 -11 8 -5 -6z"/>
<path d="M4090 6376 c0 -2 7 -7 16 -10 8 -3 12 -2 9 4 -6 10 -25 14 -25 6z"/>
<path d="M4640 6321 c0 -6 4 -13 10 -16 6 -3 7 1 4 9 -7 18 -14 21 -14 7z"/>
<path d="M3680 6309 c0 -5 5 -7 10 -4 6 3 10 8 10 11 0 2 -4 4 -10 4 -5 0 -10
-5 -10 -11z"/>
<path d="M3738 6313 c7 -3 16 -2 19 1 4 3 -2 6 -13 5 -11 0 -14 -3 -6 -6z"/>
<path d="M4176 6302 c-3 -5 1 -9 9 -9 8 0 12 4 9 9 -3 4 -7 8 -9 8 -2 0 -6 -4
-9 -8z"/>
<path d="M3715 6280 c10 -11 20 -18 23 -16 5 6 -23 36 -34 36 -4 0 1 -9 11
-20z"/>
<path d="M4300 6280 c-19 -6 -14 -8 22 -7 27 1 48 5 48 10 0 9 -37 8 -70 -3z"/>
<path d="M3768 6253 c7 -3 16 -2 19 1 4 3 -2 6 -13 5 -11 0 -14 -3 -6 -6z"/>
<path d="M4570 6241 c0 -5 6 -11 13 -14 8 -3 6 -10 -8 -21 -11 -8 -15 -16 -9
-16 6 0 18 8 27 18 15 16 15 19 -3 30 -11 7 -20 8 -20 3z"/>
<path d="M5899 6214 c-1 -16 -1 -35 0 -43 2 -7 -2 -11 -7 -7 -5 3 -6 -15 -3
-42 6 -56 6 -447 0 -849 -2 -160 -1 -289 3 -286 5 2 4 -7 -2 -21 -6 -16 -6
-26 0 -26 5 0 8 -18 5 -40 -2 -22 0 -42 5 -45 4 -3 6 -26 3 -51 -11 -109 1
-113 322 -107 132 3 242 7 245 9 2 3 -110 4 -249 3 -214 -1 -255 1 -268 14
-12 12 -16 51 -19 186 -4 156 -3 171 13 171 15 0 15 1 1 13 -13 9 -15 23 -11
59 3 26 9 45 14 42 5 -3 9 -1 9 4 0 6 -7 12 -15 16 -17 6 -21 71 -5 81 6 3 10
11 10 16 0 6 -4 8 -9 5 -14 -9 -13 125 1 142 10 12 10 14 1 8 -7 -4 -13 -2
-13 3 0 6 7 11 15 11 19 0 19 2 0 47 -8 20 -13 38 -10 41 3 3 5 0 5 -6 0 -7 4
-12 10 -12 11 0 1 32 -13 41 -5 4 -11 44 -14 89 -3 65 -1 80 9 74 10 -6 10 -5
1 7 -8 9 -14 93 -19 244 -6 207 -12 289 -15 209z"/>
<path d="M4360 6226 c0 -3 9 -10 20 -16 11 -6 20 -8 20 -6 0 3 -9 10 -20 16
-11 6 -20 8 -20 6z"/>
<path d="M3785 6210 c-3 -5 1 -10 10 -10 9 0 13 5 10 10 -3 6 -8 10 -10 10 -2
0 -7 -4 -10 -10z"/>
<path d="M4298 6204 c6 -3 12 -15 13 -27 0 -21 1 -21 8 -2 8 19 8 19 19 0 6
-11 13 -17 16 -14 10 10 -18 37 -44 43 -14 3 -19 3 -12 0z"/>
<path d="M5220 6200 c0 -5 5 -10 11 -10 5 0 7 5 4 10 -3 6 -8 10 -11 10 -2 0
-4 -4 -4 -10z"/>
<path d="M3651 6184 c0 -11 3 -14 6 -6 3 7 2 16 -1 19 -3 4 -6 -2 -5 -13z"/>
<path d="M4250 6191 c0 -5 -10 -7 -22 -4 -18 4 -17 2 6 -11 16 -9 31 -14 34
-11 3 3 0 5 -6 5 -6 0 -9 7 -6 15 4 8 3 15 0 15 -3 0 -6 -4 -6 -9z"/>
<path d="M4427 6169 c7 -7 15 -10 18 -7 3 3 -2 9 -12 12 -14 6 -15 5 -6 -5z"/>
<path d="M4470 6172 c0 -5 11 -14 25 -20 14 -6 25 -10 25 -8 0 2 -11 11 -25
20 -14 9 -25 13 -25 8z"/>
<path d="M4580 6168 c8 -9 20 -15 25 -15 6 1 9 -9 8 -23 -2 -21 -1 -22 7 -8
10 17 4 48 -10 48 -5 0 -16 3 -26 7 -16 6 -17 5 -4 -9z"/>
<path d="M4665 6161 c-6 -10 83 -36 92 -27 3 3 -2 6 -13 6 -10 0 -31 7 -46 14
-15 8 -30 11 -33 7z"/>
<path d="M3687 6153 c-4 -7 5 -15 23 -22 18 -6 28 -6 25 -1 -4 6 -12 10 -20
10 -7 0 -15 5 -17 12 -3 9 -6 9 -11 1z"/>
<path d="M5150 6150 c0 -5 5 -10 11 -10 5 0 7 5 4 10 -3 6 -8 10 -11 10 -2 0
-4 -4 -4 -10z"/>
<path d="M4305 6141 c-3 -6 3 -9 14 -8 11 0 17 5 15 9 -7 11 -22 10 -29 -1z"/>
<path d="M4536 6138 c3 -5 0 -15 -6 -23 -13 -16 -4 -38 13 -32 7 2 12 15 12
28 0 16 5 23 15 21 8 -2 12 0 7 4 -11 11 -47 12 -41 2z m14 -38 c0 -5 -4 -10
-10 -10 -5 0 -10 5 -10 10 0 6 5 10 10 10 6 0 10 -4 10 -10z"/>
<path d="M4137 6128 c7 -8 10 -18 6 -22 -4 -4 0 -4 9 -1 11 4 21 -1 30 -14 7
-12 20 -21 29 -21 9 0 19 -9 22 -20 3 -13 10 -18 21 -14 11 4 16 0 16 -14 0
-12 -5 -24 -10 -27 -10 -6 -35 13 -37 28 -4 24 -12 32 -20 20 -7 -10 -13 -7
-27 8 -9 12 -20 18 -24 14 -4 -4 -1 -10 6 -12 6 -3 9 -10 5 -16 -3 -7 -3 -9 2
-5 4 4 14 3 22 -3 7 -6 13 -8 13 -4 0 3 11 -7 25 -23 28 -33 33 -51 10 -32 -8
7 -15 9 -15 4 0 -13 16 -36 24 -35 18 3 19 -1 1 -9 -20 -8 -20 -9 0 -9 19 -1
19 -1 -1 -15 -11 -8 -31 -16 -44 -18 -14 -2 227 -2 535 -1 449 1 569 4 605 16
l45 14 -74 -3 c-40 -2 -76 -5 -79 -9 -8 -8 -34 -6 -29 3 3 4 -106 5 -241 2
-316 -6 -686 2 -689 15 -1 6 -4 19 -8 30 -6 18 -5 18 5 3 11 -18 45 -14 34 4
-4 6 -9 6 -14 -2 -4 -7 -7 3 -7 23 1 20 5 33 9 31 13 -8 9 6 -6 22 -8 8 -19
14 -25 14 -6 0 -11 5 -11 11 0 20 33 4 59 -30 14 -19 22 -32 16 -29 -5 3 -15
0 -22 -7 -21 -23 13 -26 38 -4 20 17 21 22 9 29 -8 6 -18 10 -22 10 -5 0 -8 5
-8 10 0 6 7 10 16 8 10 -2 18 3 20 10 1 7 0 8 -3 2 -2 -5 -10 -7 -16 -3 -7 4
-21 9 -32 10 -22 3 -58 41 -50 53 3 4 -4 10 -15 13 -23 6 -27 -8 -5 -17 8 -3
15 -15 15 -26 0 -17 -4 -20 -22 -15 -13 4 -30 14 -38 23 -9 10 -27 23 -40 31
-22 13 -24 12 -13 -1z"/>
<path d="M5150 6119 c0 -5 5 -7 10 -4 6 3 10 8 10 11 0 2 -4 4 -10 4 -5 0 -10
-5 -10 -11z"/>
<path d="M4270 6110 c0 -5 12 -10 26 -10 14 0 23 -3 21 -7 -3 -5 9 -9 26 -10
l30 -2 -39 19 c-42 22 -64 25 -64 10z"/>
<path d="M4390 6100 c-13 -8 -12 -10 3 -10 9 0 17 5 17 10 0 12 -1 12 -20 0z"/>
<path d="M4475 6100 c-3 -5 1 -10 9 -10 9 0 16 5 16 10 0 6 -4 10 -9 10 -6 0
-13 -4 -16 -10z"/>
<path d="M4628 6065 c2 -15 9 -22 18 -18 8 3 14 0 14 -6 0 -6 4 -11 10 -11 15
0 2 23 -24 42 -22 16 -23 16 -18 -7z"/>
<path d="M3680 6070 c0 -5 5 -10 11 -10 5 0 7 5 4 10 -3 6 -8 10 -11 10 -2 0
-4 -4 -4 -10z"/>
<path d="M4500 6070 c0 -5 5 -10 11 -10 5 0 7 5 4 10 -3 6 -8 10 -11 10 -2 0
-4 -4 -4 -10z"/>
<path d="M3710 6061 c0 -6 4 -13 10 -16 6 -3 7 1 4 9 -7 18 -14 21 -14 7z"/>
<path d="M4465 6050 c-10 -11 -16 -22 -14 -24 2 -2 12 7 22 20 22 29 17 32 -8
4z"/>
<path d="M4536 6062 c6 -4 13 -15 17 -24 3 -10 12 -18 18 -18 8 0 8 4 -1 15
-6 8 -9 18 -7 22 3 5 -4 10 -16 10 -12 1 -17 -1 -11 -5z"/>
<path d="M4929 6053 c-5 -29 -5 -53 -1 -48 7 6 12 55 6 55 -2 0 -5 -3 -5 -7z"/>
<path d="M4090 6039 c0 -5 5 -7 10 -4 6 3 10 8 10 11 0 2 -4 4 -10 4 -5 0 -10
-5 -10 -11z"/>
<path d="M4387 6043 c-4 -3 -7 -17 -7 -30 0 -12 -5 -23 -11 -23 -5 0 -7 -4 -4
-10 9 -14 25 -12 23 3 -2 6 3 11 10 9 9 -1 11 6 6 25 -8 34 -9 35 -17 26z"/>
<path d="M4486 6041 c-4 -7 -5 -15 -2 -18 9 -9 19 4 14 18 -4 11 -6 11 -12 0z"/>
<path d="M4518 6038 c9 -9 5 -15 -17 -24 -16 -7 -34 -22 -41 -33 -16 -31 2
-26 42 12 33 31 40 57 15 57 -8 0 -7 -4 1 -12z"/>
<path d="M4746 6042 c-3 -5 1 -15 9 -22 21 -17 27 -9 10 13 -7 10 -16 14 -19
9z"/>
<path d="M4810 6041 c0 -6 4 -12 8 -15 5 -3 9 1 9 9 0 8 -4 15 -9 15 -4 0 -8
-4 -8 -9z"/>
<path d="M4586 6014 c-4 -9 -4 -19 -1 -22 3 -3 5 0 5 6 0 7 7 12 15 12 8 0 15
-5 15 -10 0 -6 -7 -13 -15 -16 -22 -9 -18 -23 4 -17 23 6 60 43 43 43 -7 0
-12 -6 -13 -12 0 -7 -5 -3 -11 10 -13 26 -33 29 -42 6z"/>
<path d="M5136 6021 c-3 -4 6 -8 20 -9 13 -1 24 0 24 2 0 7 -40 14 -44 7z"/>
<path d="M3695 6010 c-3 -5 1 -10 10 -10 9 0 13 5 10 10 -3 6 -8 10 -10 10 -2
0 -7 -4 -10 -10z"/>
<path d="M4168 6003 c7 -3 16 -2 19 1 4 3 -2 6 -13 5 -11 0 -14 -3 -6 -6z"/>
<path d="M4846 5998 c3 -5 10 -6 15 -3 13 9 11 12 -6 12 -8 0 -12 -4 -9 -9z"/>
<path d="M4515 5979 c4 -13 3 -19 -2 -16 -5 4 -10 0 -10 -7 0 -7 6 -13 14 -13
7 0 11 2 8 5 -2 3 0 13 5 22 7 13 6 20 -6 24 -12 5 -14 1 -9 -15z"/>
<path d="M5050 5996 c0 -2 7 -9 15 -16 9 -7 15 -8 15 -2 0 5 -7 12 -15 16 -8
3 -15 4 -15 2z"/>
<path d="M5226 5992 c-3 -5 1 -9 9 -9 8 0 12 4 9 9 -3 4 -7 8 -9 8 -2 0 -6 -4
-9 -8z"/>
<path d="M4552 5979 c2 -7 10 -15 17 -17 8 -3 12 1 9 9 -2 7 -10 15 -17 17 -8
3 -12 -1 -9 -9z"/>
<path d="M4340 5969 c0 -6 -4 -7 -10 -4 -5 3 -10 1 -10 -4 0 -6 6 -11 13 -12
6 0 22 -2 35 -5 30 -5 28 10 -3 24 -17 8 -25 8 -25 1z"/>
<path d="M4405 5970 c3 -5 8 -10 11 -10 2 0 4 5 4 10 0 6 -5 10 -11 10 -5 0
-7 -4 -4 -10z"/>
<path d="M5211 5968 c9 -7 14 -19 12 -25 -6 -18 4 -16 11 2 3 9 -3 19 -17 25
-19 10 -20 9 -6 -2z"/>
<path d="M4426 5955 c-3 -9 -2 -13 4 -10 6 3 10 -1 10 -9 0 -9 5 -16 10 -16 7
0 7 8 -1 23 -16 30 -16 30 -23 12z"/>
<path d="M4938 5963 c7 -3 16 -2 19 1 4 3 -2 6 -13 5 -11 0 -14 -3 -6 -6z"/>
<path d="M4093 5953 c9 -2 23 -2 30 0 6 3 -1 5 -18 5 -16 0 -22 -2 -12 -5z"/>
<path d="M4547 5949 c7 -7 15 -10 18 -7 3 3 -2 9 -12 12 -14 6 -15 5 -6 -5z"/>
<path d="M4816 5948 c3 -5 10 -6 15 -3 13 9 11 12 -6 12 -8 0 -12 -4 -9 -9z"/>
<path d="M4295 5930 c-3 -5 -1 -10 4 -10 6 0 11 5 11 10 0 6 -2 10 -4 10 -3 0
-8 -4 -11 -10z"/>
<path d="M4398 5923 c7 -3 16 -2 19 1 4 3 -2 6 -13 5 -11 0 -14 -3 -6 -6z"/>
<path d="M4538 5923 c7 -3 16 -2 19 1 4 3 -2 6 -13 5 -11 0 -14 -3 -6 -6z"/>
<path d="M4618 5923 c7 -3 16 -2 19 1 4 3 -2 6 -13 5 -11 0 -14 -3 -6 -6z"/>
<path d="M5013 5923 c9 -2 23 -2 30 0 6 3 -1 5 -18 5 -16 0 -22 -2 -12 -5z"/>
<path d="M4098 5913 c6 -2 18 -2 25 0 6 3 1 5 -13 5 -14 0 -19 -2 -12 -5z"/>
<path d="M3683 5896 c4 -10 7 -22 7 -27 0 -15 27 -10 34 7 10 26 6 30 -9 10
-13 -17 -15 -17 -15 -4 0 9 -5 20 -12 24 -8 5 -9 2 -5 -10z"/>
<path d="M3898 5893 c7 -3 16 -2 19 1 4 3 -2 6 -13 5 -11 0 -14 -3 -6 -6z"/>
<path d="M3812 5870 c-18 -29 -15 -38 4 -12 9 13 14 25 12 27 -2 2 -9 -5 -16
-15z"/>
<path d="M4110 5870 c6 -11 15 -20 20 -20 6 0 2 9 -7 20 -10 11 -19 20 -21 20
-1 0 2 -9 8 -20z"/>
<path d="M3965 5870 c3 -5 8 -10 11 -10 2 0 4 5 4 10 0 6 -5 10 -11 10 -5 0
-7 -4 -4 -10z"/>
<path d="M4040 5876 c0 -2 7 -7 16 -10 8 -3 12 -2 9 4 -6 10 -25 14 -25 6z"/>
<path d="M4195 5860 c-3 -5 -1 -10 4 -10 6 0 11 5 11 10 0 6 -2 10 -4 10 -3 0
-8 -4 -11 -10z"/>
<path d="M3908 5848 c5 -5 16 -8 23 -6 8 3 3 7 -10 11 -17 4 -21 3 -13 -5z"/>
<path d="M3666 5832 c11 -10 23 -24 27 -32 4 -11 6 -11 6 -2 1 7 6 10 11 7 6
-3 10 -1 10 4 0 6 -5 11 -11 11 -6 0 -17 7 -25 15 -9 8 -21 15 -27 15 -7 -1
-3 -9 9 -18z"/>
<path d="M4212 5842 c-7 -5 -10 -16 -6 -26 4 -11 1 -22 -7 -27 -11 -7 -11 -9
3 -9 9 0 19 -8 21 -17 3 -10 5 6 6 35 0 28 0 52 -1 52 -2 0 -9 -4 -16 -8z"/>
<path d="M4158 5833 c6 -2 10 -9 7 -13 -3 -5 0 -12 6 -16 8 -4 9 -3 5 4 -4 7
-2 12 3 12 6 0 11 -5 11 -12 0 -6 3 -8 6 -5 10 10 -16 37 -35 36 -10 0 -12 -2
-3 -6z"/>
<path d="M3765 5820 c-13 -6 -15 -9 -5 -9 8 0 22 4 30 9 18 12 2 12 -25 0z"/>
<path d="M3981 5804 c0 -11 3 -14 6 -6 3 7 2 16 -1 19 -3 4 -6 -2 -5 -13z"/>
<path d="M3730 5806 c0 -2 7 -9 15 -16 9 -7 15 -8 15 -2 0 5 -7 12 -15 16 -8
3 -15 4 -15 2z"/>
<path d="M3715 5770 c-3 -6 1 -7 9 -4 18 7 21 14 7 14 -6 0 -13 -4 -16 -10z"/>
<path d="M4055 5770 c-3 -6 1 -7 9 -4 18 7 21 14 7 14 -6 0 -13 -4 -16 -10z"/>
<path d="M3890 5760 c0 -5 5 -10 11 -10 5 0 7 5 4 10 -3 6 -8 10 -11 10 -2 0
-4 -4 -4 -10z"/>
<path d="M3770 5746 c0 -2 11 -11 25 -20 25 -17 25 -16 13 4 -11 17 -38 29
-38 16z"/>
<path d="M3930 5725 c0 -8 4 -15 10 -15 5 0 7 7 4 15 -4 8 -8 15 -10 15 -2 0
-4 -7 -4 -15z"/>
<path d="M5930 5726 c0 -8 4 -17 9 -20 5 -4 7 3 4 14 -6 23 -13 26 -13 6z"/>
<path d="M3836 5721 c-3 -4 6 -8 20 -9 13 -1 24 0 24 2 0 7 -40 14 -44 7z"/>
<path d="M3758 5693 c7 -3 16 -2 19 1 4 3 -2 6 -13 5 -11 0 -14 -3 -6 -6z"/>
<path d="M3637 5683 c-10 -9 -9 -23 1 -23 5 0 9 7 9 15 0 17 -1 18 -10 8z"/>
<path d="M3790 5682 c0 -6 5 -12 10 -12 6 0 10 -6 10 -14 0 -8 7 -17 16 -20
25 -9 23 -4 -8 29 -15 16 -28 24 -28 17z"/>
<path d="M3728 5663 c6 -2 18 -2 25 0 6 3 1 5 -13 5 -14 0 -19 -2 -12 -5z"/>
<path d="M3780 5640 c0 -5 5 -10 10 -10 6 0 10 5 10 10 0 6 -4 10 -10 10 -5 0
-10 -4 -10 -10z"/>
<path d="M5935 5640 c3 -5 8 -10 11 -10 2 0 4 5 4 10 0 6 -5 10 -11 10 -5 0
-7 -4 -4 -10z"/>
<path d="M3655 5613 c11 -3 24 -10 28 -17 6 -7 7 -6 4 4 -2 8 -14 16 -28 17
-19 1 -20 1 -4 -4z"/>
<path d="M3760 5610 c0 -6 -4 -8 -10 -5 -5 3 -10 1 -10 -4 0 -13 10 -14 29 -2
9 6 10 11 2 15 -6 4 -11 2 -11 -4z"/>
<path d="M3905 5610 c-4 -6 -10 -8 -14 -6 -4 3 -8 -1 -8 -9 0 -12 4 -12 21 2
12 10 23 19 25 20 2 2 -1 3 -7 3 -6 0 -14 -5 -17 -10z"/>
<path d="M3955 5610 c4 -6 11 -8 16 -5 14 9 11 15 -7 15 -8 0 -12 -5 -9 -10z"/>
<path d="M3792 5574 c10 -10 20 -16 22 -13 3 3 -5 11 -17 18 -21 13 -21 12 -5
-5z"/>
<path d="M5970 5581 c0 -6 4 -13 10 -16 6 -3 7 1 4 9 -7 18 -14 21 -14 7z"/>
<path d="M3750 5575 c0 -6 38 -45 45 -45 2 0 2 6 -1 13 -4 13 -44 41 -44 32z"/>
<path d="M3930 5561 c0 -6 4 -13 10 -16 6 -3 7 1 4 9 -7 18 -14 21 -14 7z"/>
<path d="M4021 5554 c0 -11 3 -14 6 -6 3 7 2 16 -1 19 -3 4 -6 -2 -5 -13z"/>
<path d="M3852 5546 c10 -7 14 -17 10 -22 -4 -4 1 -2 11 5 9 7 17 19 17 25 0
6 -4 5 -9 -3 -6 -9 -11 -10 -15 -2 -4 6 -13 11 -19 11 -7 0 -4 -6 5 -14z"/>
<path d="M3951 5517 c2 -1 13 -9 24 -17 19 -14 19 -14 6 3 -7 9 -18 17 -24 17
-6 0 -8 -1 -6 -3z"/>
<path d="M3770 5506 c0 -2 8 -10 18 -17 15 -13 16 -12 3 4 -13 16 -21 21 -21
13z"/>
<path d="M3851 5494 c0 -11 3 -14 6 -6 3 7 2 16 -1 19 -3 4 -6 -2 -5 -13z"/>
<path d="M3738 5462 c9 -10 19 -17 21 -16 6 5 -20 34 -30 34 -5 0 -1 -8 9 -18z"/>
<path d="M3816 5472 c-3 -5 1 -9 9 -9 8 0 12 4 9 9 -3 4 -7 8 -9 8 -2 0 -6 -4
-9 -8z"/>
<path d="M4000 5475 c0 -11 36 -45 48 -45 8 0 3 10 -12 25 -24 24 -36 31 -36
20z"/>
<path d="M3710 5421 c0 -6 4 -13 10 -16 6 -3 7 1 4 9 -7 18 -14 21 -14 7z"/>
<path d="M3950 5426 c0 -2 7 -7 16 -10 8 -3 12 -2 9 4 -6 10 -25 14 -25 6z"/>
<path d="M3627 5413 c-4 -3 -7 -18 -6 -32 1 -26 1 -25 10 3 9 31 7 41 -4 29z"/>
<path d="M3900 5416 c0 -2 7 -7 16 -10 8 -3 12 -2 9 4 -6 10 -25 14 -25 6z"/>
<path d="M3946 5387 c3 -10 9 -15 12 -12 3 3 0 11 -7 18 -10 9 -11 8 -5 -6z"/>
<path d="M3640 5380 c0 -5 9 -10 20 -10 11 0 20 5 20 10 0 6 -9 10 -20 10 -11
0 -20 -4 -20 -10z"/>
<path d="M4018 5378 c5 -5 16 -8 23 -6 8 3 3 7 -10 11 -17 4 -21 3 -13 -5z"/>
<path d="M3691 5366 c2 -2 22 -6 44 -10 29 -5 36 -4 25 3 -13 10 -79 16 -69 7z"/>
<path d="M3683 5329 c-2 -23 3 -25 10 -4 4 8 3 16 -1 19 -4 3 -9 -4 -9 -15z"/>
<path d="M3910 5340 c0 -5 5 -10 11 -10 5 0 7 5 4 10 -3 6 -8 10 -11 10 -2 0
-4 -4 -4 -10z"/>
<path d="M3988 5333 c7 -3 16 -2 19 1 4 3 -2 6 -13 5 -11 0 -14 -3 -6 -6z"/>
<path d="M4090 5320 c0 -5 5 -10 11 -10 5 0 7 5 4 10 -3 6 -8 10 -11 10 -2 0
-4 -4 -4 -10z"/>
<path d="M3630 5296 c0 -31 6 -34 13 -6 3 11 1 23 -4 26 -5 3 -9 -6 -9 -20z"/>
<path d="M3902 5290 c0 -14 2 -19 5 -12 2 6 2 18 0 25 -3 6 -5 1 -5 -13z"/>
<path d="M3800 5291 c0 -10 19 -25 25 -20 1 2 -3 10 -11 17 -8 7 -14 8 -14 3z"/>
<path d="M4000 5278 c0 -7 10 -14 21 -15 12 -1 20 -1 18 0 -2 2 -12 9 -21 16
-15 11 -18 11 -18 -1z"/>
<path d="M5950 5261 c0 -11 4 -22 9 -25 4 -3 6 6 3 19 -5 30 -12 33 -12 6z"/>
<path d="M3912 5255 c-11 -12 -10 -15 3 -15 8 0 15 7 15 15 0 18 -2 18 -18 0z"/>
<path d="M3955 5261 c-3 -5 0 -13 6 -17 7 -4 9 -3 5 4 -3 5 0 13 6 15 9 4 10
6 1 6 -6 1 -14 -3 -18 -8z"/>
<path d="M3691 5238 c5 -10 7 -23 4 -28 -3 -6 3 -10 15 -10 19 0 20 2 6 15 -8
9 -13 21 -10 29 3 7 -2 13 -10 13 -11 0 -13 -5 -5 -19z"/>
<path d="M3870 5245 c-11 -13 -10 -14 4 -9 9 3 16 10 16 15 0 13 -6 11 -20 -6z"/>
<path d="M3748 5243 c6 -3 12 -15 12 -27 0 -13 9 -33 20 -46 11 -13 20 -18 20
-13 0 6 -7 16 -15 23 -18 15 -20 57 -2 63 6 2 -1 4 -18 4 -16 0 -24 -2 -17 -4z"/>
<path d="M3940 5211 c0 -6 4 -13 10 -16 6 -3 7 1 4 9 -7 18 -14 21 -14 7z"/>
<path d="M3970 5191 c0 -6 4 -13 10 -16 6 -3 7 1 4 9 -7 18 -14 21 -14 7z"/>
<path d="M3680 5186 c0 -2 7 -7 16 -10 8 -3 12 -2 9 4 -6 10 -25 14 -25 6z"/>
<path d="M3643 5153 c-13 -2 -23 -8 -23 -13 0 -5 14 -4 30 1 27 10 42 21 23
18 -5 -1 -18 -4 -30 -6z"/>
<path d="M3740 5151 c0 -14 50 -71 62 -71 6 0 -1 10 -15 23 -15 12 -27 26 -27
30 0 13 16 7 39 -14 12 -12 26 -17 30 -13 3 5 5 8 2 7 -2 -1 -20 9 -40 22 -38
27 -51 31 -51 16z"/>
<path d="M6075 5120 c-3 -5 1 -10 10 -10 9 0 13 5 10 10 -3 6 -8 10 -10 10 -2
0 -7 -4 -10 -10z"/>
<path d="M3620 5116 c0 -2 7 -6 15 -10 8 -3 15 -1 15 4 0 6 -7 10 -15 10 -8 0
-15 -2 -15 -4z"/>
<path d="M3689 5118 c0 -2 -2 -14 -5 -28 l-4 -25 13 23 c7 12 17 19 22 15 4
-4 5 -2 1 5 -6 10 -24 17 -27 10z"/>
<path d="M3740 5106 c0 -2 8 -10 18 -17 15 -13 16 -12 3 4 -13 16 -21 21 -21
13z"/>
<path d="M3852 5093 c9 -2 20 -13 23 -24 9 -27 16 -19 8 9 -3 15 -13 22 -27
21 -16 -1 -17 -2 -4 -6z"/>
<path d="M6003 5085 c0 -8 4 -12 9 -9 5 3 6 10 3 15 -9 13 -12 11 -12 -6z"/>
<path d="M3707 5083 c-4 -3 -7 -15 -7 -25 0 -12 -4 -16 -12 -12 -7 5 -8 3 -4
-5 5 -7 14 -10 22 -7 8 3 14 1 14 -4 0 -6 -7 -10 -16 -10 -8 0 -12 -5 -9 -10
4 -6 12 -7 18 -3 30 19 48 8 26 -14 -12 -12 24 -43 51 -43 8 0 0 8 -18 17 -26
13 -30 18 -21 30 9 10 9 17 1 25 -7 7 -12 8 -12 3 0 -5 -7 1 -16 13 -23 33
-11 38 26 12 33 -23 58 -17 39 10 -9 13 -10 12 -5 -2 7 -24 1 -23 -28 7 -26
26 -38 30 -49 18z"/>
<path d="M3970 5081 c0 -7 -5 -9 -12 -5 -7 5 -8 3 -3 -5 5 -9 10 -10 18 -2 6
6 8 14 4 18 -4 3 -7 1 -7 -6z"/>
<path d="M3997 5069 c7 -7 15 -10 18 -7 3 3 -2 9 -12 12 -14 6 -15 5 -6 -5z"/>
<path d="M3620 5050 c0 -5 5 -10 10 -10 6 0 10 5 10 10 0 6 -4 10 -10 10 -5 0
-10 -4 -10 -10z"/>
<path d="M3933 5045 c0 -8 4 -15 9 -15 4 0 8 4 8 9 0 6 -4 12 -8 15 -5 3 -9
-1 -9 -9z"/>
<path d="M3834 5038 c-4 -7 -3 -8 5 -4 6 4 18 2 26 -4 8 -7 15 -9 15 -4 0 5 5
2 11 -6 9 -13 10 -13 6 0 -2 8 -9 15 -14 15 -6 0 -15 3 -19 8 -11 10 -22 9
-30 -5z"/>
<path d="M6060 5021 c0 -6 4 -13 10 -16 6 -3 7 1 4 9 -7 18 -14 21 -14 7z"/>
<path d="M3811 5003 c6 -7 21 -12 33 -12 17 1 17 2 4 6 -10 2 -18 8 -18 12 0
4 -7 8 -15 8 -11 0 -12 -4 -4 -14z"/>
<path d="M4213 4980 c0 -25 2 -35 4 -22 2 12 2 32 0 45 -2 12 -4 2 -4 -23z"/>
<path d="M3933 4995 c0 -8 4 -12 9 -9 4 3 8 9 8 15 0 5 -4 9 -8 9 -5 0 -9 -7
-9 -15z"/>
<path d="M3884 4971 c14 -5 16 -10 7 -15 -9 -6 -8 -12 5 -27 15 -17 15 -19 1
-19 -20 0 -37 -30 -36 -62 1 -25 4 -19 13 25 4 15 13 27 21 27 23 0 30 22 11
36 -11 8 -13 14 -7 19 19 11 12 25 -11 24 -21 0 -21 -1 -4 -8z"/>
<path d="M5970 4966 c0 -2 7 -7 16 -10 8 -3 12 -2 9 4 -6 10 -25 14 -25 6z"/>
<path d="M3957 4945 c3 -8 9 -12 14 -9 12 7 11 11 -5 17 -10 4 -13 1 -9 -8z"/>
<path d="M6285 4940 c-3 -6 1 -7 9 -4 18 7 21 14 7 14 -6 0 -13 -4 -16 -10z"/>
<path d="M3810 4930 c0 -5 5 -10 10 -10 6 0 10 5 10 10 0 6 -4 10 -10 10 -5 0
-10 -4 -10 -10z"/>
<path d="M3996 4931 c-3 -4 6 -6 19 -3 14 2 25 6 25 8 0 8 -39 4 -44 -5z"/>
<path d="M5955 4930 c-3 -6 1 -7 9 -4 18 7 21 14 7 14 -6 0 -13 -4 -16 -10z"/>
<path d="M6010 4930 c0 -5 5 -10 11 -10 5 0 7 5 4 10 -3 6 -8 10 -11 10 -2 0
-4 -4 -4 -10z"/>
<path d="M3656 4882 c-3 -24 -4 -47 -1 -52 3 -4 -1 -11 -7 -13 -10 -4 -10 -6
0 -6 7 -1 10 -5 7 -11 -3 -5 1 -10 9 -10 10 0 13 6 9 17 -6 16 -1 16 44 2 6
-2 12 1 12 6 1 6 -13 11 -32 13 -31 3 -33 5 -29 37 6 52 -4 66 -12 17z"/>
<path d="M3770 4898 c0 -6 12 -8 30 -5 16 4 32 2 35 -3 8 -13 25 -3 25 13 0 8
-3 8 -9 -2 -5 -7 -11 -9 -14 -4 -9 14 -67 14 -67 1z"/>
<path d="M3945 4900 c-3 -5 -1 -10 4 -10 6 0 11 5 11 10 0 6 -2 10 -4 10 -3 0
-8 -4 -11 -10z"/>
<path d="M4106 4895 c4 -8 11 -15 16 -15 6 0 5 6 -2 15 -7 8 -14 15 -16 15 -2
0 -1 -7 2 -15z"/>
<path d="M6036 4897 c3 -10 9 -15 12 -12 3 3 0 11 -7 18 -10 9 -11 8 -5 -6z"/>
<path d="M3886 4874 c-9 -23 -7 -34 5 -34 5 0 7 5 3 11 -3 6 -1 15 6 19 8 5 8
10 2 14 -5 3 -13 -1 -16 -10z"/>
<path d="M3924 4869 c1 -7 10 -13 19 -15 9 -1 15 2 11 7 -3 5 -9 7 -14 4 -4
-3 -11 0 -13 5 -3 6 -4 5 -3 -1z"/>
<path d="M3744 4834 c3 -9 6 -20 6 -25 0 -5 4 -9 9 -9 4 0 6 11 3 25 -2 14 -9
25 -14 25 -6 0 -7 -7 -4 -16z"/>
<path d="M6000 4846 c0 -2 7 -7 16 -10 8 -3 12 -2 9 4 -6 10 -25 14 -25 6z"/>
<path d="M4050 4823 c0 -7 5 -15 11 -19 8 -4 7 -9 -2 -15 -10 -6 -10 -9 -2 -9
19 0 22 14 7 35 -8 10 -14 14 -14 8z"/>
<path d="M3950 4809 c0 -5 5 -7 10 -4 6 3 10 8 10 11 0 2 -4 4 -10 4 -5 0 -10
-5 -10 -11z"/>
<path d="M3900 4786 c0 -8 -6 -16 -12 -19 -7 -3 -3 -4 10 -4 22 1 30 21 12 32
-5 3 -10 0 -10 -9z"/>
<path d="M3984 4773 c2 -12 -1 -24 -8 -27 -6 -2 -3 -5 7 -5 19 -1 20 5 6 34
-9 19 -9 19 -5 -2z"/>
<path d="M3856 4755 c4 -8 8 -15 10 -15 2 0 4 7 4 15 0 8 -4 15 -10 15 -5 0
-7 -7 -4 -15z"/>
<path d="M3688 4683 c6 -2 18 -2 25 0 6 3 1 5 -13 5 -14 0 -19 -2 -12 -5z"/>
<path d="M3050 4274 c-85 -72 -80 -198 12 -254 57 -34 99 -27 158 28 42 38 52
55 57 88 16 122 -135 214 -227 138z"/>
<path d="M5328 4261 c-44 -39 -72 -103 -63 -148 8 -44 70 -108 118 -121 115
-32 228 109 173 216 -29 55 -62 76 -130 80 -59 4 -65 2 -98 -27z"/>
<path d="M6840 3601 c0 -369 3 -671 8 -673 4 -2 58 -2 120 0 l113 3 -2 288
c-3 329 -2 333 81 372 66 32 128 36 176 11 90 -46 94 -61 95 -375 1 -144 4
-270 6 -279 4 -16 18 -18 118 -18 94 0 114 3 119 16 10 25 7 471 -4 563 -23
198 -154 331 -328 331 -80 0 -121 -14 -198 -66 -37 -24 -68 -43 -69 -42 0 2 1
107 4 233 3 127 4 247 2 268 l-3 37 -119 0 -119 0 0 -669z"/>
<path d="M2088 3619 c-2 -349 -1 -647 1 -662 l3 -28 112 2 c61 1 117 7 124 12
9 7 12 70 12 255 l0 245 121 -7 c141 -8 326 2 332 18 2 6 2 57 -1 114 l-4 102
-227 0 -226 0 3 167 3 168 249 -3 250 -3 0 120 0 121 -298 0 c-165 0 -333 3
-375 6 l-76 7 -3 -634z"/>
<path d="M8459 4240 c-111 -14 -152 -103 -83 -180 30 -33 43 -40 74 -40 66 0
130 59 130 120 0 30 -32 85 -57 97 -10 5 -38 7 -64 3z m79 -116 c-5 -71 -23
-65 -23 9 0 34 -4 71 -9 82 -4 11 2 6 14 -12 16 -24 20 -44 18 -79z m-78 36
c0 -21 7 -43 15 -50 24 -20 18 -40 -11 -40 -39 0 -61 16 -73 53 -14 41 -7 61
22 74 34 15 47 5 47 -37z m30 -8 c0 -7 -4 -10 -10 -7 -5 3 -10 16 -10 28 0 18
2 19 10 7 5 -8 10 -21 10 -28z"/>
<path d="M8420 4152 c0 -25 7 -45 18 -55 28 -25 32 -21 15 14 -8 16 -13 41
-10 55 3 16 0 24 -9 24 -10 0 -14 -13 -14 -38z"/>
<path d="M8071 4092 l-123 -3 7 -136 8 -135 -70 4 -71 4 -6 -66 c-3 -36 -6
-82 -6 -102 l0 -38 70 0 70 0 0 -232 c0 -224 1 -235 24 -283 31 -66 87 -129
144 -163 39 -22 59 -27 112 -27 76 1 188 41 181 66 -2 8 -7 51 -11 97 -4 45
-10 85 -14 89 -3 4 -22 -1 -41 -10 -53 -25 -87 -22 -121 14 l-29 30 -3 210 -3
209 100 0 101 0 0 44 c0 23 3 70 6 102 l6 59 -107 -3 -108 -4 6 24 c7 28 12
247 6 250 -2 2 -60 2 -128 0z"/>
<path d="M3861 3819 c-31 -13 -75 -42 -104 -70 -28 -27 -52 -49 -54 -49 -2 0
-3 27 -3 60 0 41 -4 60 -12 61 -7 0 -61 2 -119 2 l-106 2 -2 -447 -2 -448 119
0 120 0 7 138 c4 75 5 197 2 271 -6 120 -4 137 13 172 28 55 54 75 118 93 85
23 156 1 199 -62 16 -24 19 -58 23 -317 l5 -290 118 -3 118 -3 -3 333 -3 333
-28 57 c-72 147 -259 224 -406 167z"/>
<path d="M4693 3826 c-59 -19 -104 -49 -153 -102 -52 -57 -70 -99 -70 -166 2
-149 89 -230 309 -289 45 -12 94 -31 107 -43 53 -48 34 -109 -41 -126 -60 -14
-120 7 -211 72 l-41 29 -69 -71 c-38 -39 -70 -75 -72 -80 -4 -11 75 -78 119
-100 68 -35 158 -53 244 -47 98 6 150 24 216 75 44 33 56 50 80 113 48 123 33
207 -48 281 -46 41 -104 69 -196 94 -34 10 -81 26 -105 35 -98 42 -64 139 49
139 34 0 103 -26 142 -52 15 -11 31 -18 36 -16 5 2 37 30 72 63 l62 59 -51 47
c-80 74 -130 94 -242 96 -59 2 -111 -3 -137 -11z"/>
<path d="M6064 3826 c-194 -44 -327 -199 -349 -408 -26 -240 154 -472 378
-486 109 -6 190 19 296 95 l24 18 -6 -57 c-21 -172 -109 -262 -254 -260 -81 2
-117 18 -197 90 -96 87 -99 87 -169 11 -86 -95 -86 -86 -9 -165 106 -109 212
-154 367 -155 126 -1 266 54 322 127 14 19 31 34 38 34 6 0 20 19 29 43 10 23
32 69 49 102 l32 60 3 473 3 472 -53 0 c-29 0 -77 3 -105 6 l-53 7 0 -70 0
-69 -53 52 c-81 77 -181 105 -293 80z m144 -220 c62 -17 112 -52 154 -110 29
-39 30 -44 26 -127 -5 -100 -23 -139 -84 -182 -30 -21 -57 -30 -100 -34 -121
-11 -192 33 -233 142 -21 56 -34 172 -20 178 4 1 15 20 25 41 13 27 34 49 65
67 72 42 91 45 167 25z"/>
<path d="M3105 3821 l-110 -6 4 -435 c2 -239 6 -438 8 -442 8 -14 220 -9 230
5 9 11 10 222 5 680 -1 159 -5 207 -14 205 -7 -1 -62 -4 -123 -7z"/>
<path d="M5317 3674 c-4 -81 -4 -281 0 -446 l6 -299 116 3 116 3 1 438 1 437
-87 0 c-48 0 -101 3 -117 6 l-30 6 -6 -148z"/>
</g>
</svg>
